<?xml version="1.0" encoding="UTF-8"?>
<svg width="90px" height="85px" viewBox="0 0 90 85" version="1.1" xmlns="http://www.w3.org/2000/svg" xmlns:xlink="http://www.w3.org/1999/xlink">
    <!-- Generator: Sketch 62 (91390) - https://sketch.com -->
    <title>noun_spiral_114532 2</title>
    <desc>Created with Sketch.</desc>
    <g id="Page-1" stroke="none" stroke-width="1" fill="none" fill-rule="evenodd">
        <g id="noun_spiral_114532" transform="translate(2.000000, 2.000000)" stroke="#000000" stroke-width="3">
            <path d="M17.675,32.466 C23.275,19.36 38.439,13.275 51.545,18.874 C65.485,24.831 71.958,40.96 66.001,54.9 C59.666,69.728 42.512,76.613 27.683,70.277 C11.912,63.539 4.589,45.291 11.328,29.518 C18.495,12.744 37.904,4.955 54.68,12.122 C72.523,19.746 80.807,40.392 73.184,58.236 C65.076,77.213 43.116,86.025 24.138,77.916 C3.951,69.291 -5.422,45.936 3.203,25.747 C12.377,4.275 37.22,-5.694 58.692,3.48 C81.53,13.238 92.133,39.663 82.375,62.502" id="Path"></path>
        </g>
    </g>
</svg>