<svg xmlns="http://www.w3.org/2000/svg" xmlns:xlink="http://www.w3.org/1999/xlink" version="1.1" x="0px" y="0px" viewBox="0 0 100 125" enable-background="new 0 0 100 100" xml:space="preserve"><g><g><path fill="#000000" d="M50.74,23.917c-0.817,0-1.479-0.663-1.479-1.48l0.003-7.4c0-0.817,0.662-1.479,1.48-1.479    c0.816,0,1.479,0.663,1.479,1.48l-0.003,7.399C52.22,23.255,51.558,23.917,50.74,23.917"/></g><g><path fill="#000000" d="M64.053,28.359c-0.311,0-0.618-0.098-0.885-0.296c-0.657-0.49-0.787-1.417-0.296-2.071l4.441-5.918    c0.489-0.654,1.419-0.785,2.072-0.296c0.653,0.491,0.784,1.419,0.295,2.071l-4.443,5.917    C64.949,28.156,64.503,28.359,64.053,28.359"/></g><g><path fill="#000000" d="M35.943,28.35c-0.451,0-0.892-0.204-1.185-0.593l-4.437-5.92c-0.49-0.653-0.357-1.581,0.299-2.071    c0.65-0.489,1.577-0.358,2.068,0.297l4.437,5.921c0.49,0.653,0.356,1.581-0.296,2.07C36.565,28.252,36.252,28.35,35.943,28.35"/></g><g><path fill="#000000" d="M25.579,38.703c-0.221,0-0.447-0.05-0.658-0.156l-5.918-2.961c-0.731-0.367-1.027-1.255-0.661-1.986    c0.367-0.73,1.254-1.024,1.985-0.662l5.919,2.961c0.731,0.367,1.025,1.255,0.661,1.987C26.646,38.404,26.124,38.703,25.579,38.703    "/></g><g><path fill="#000000" d="M74.409,38.72c-0.544,0-1.063-0.3-1.324-0.817c-0.366-0.732-0.068-1.62,0.663-1.987l5.92-2.957    c0.731-0.363,1.619-0.069,1.987,0.663c0.363,0.73,0.069,1.619-0.664,1.985l-5.919,2.957C74.855,38.671,74.631,38.72,74.409,38.72"/></g><g><path fill="#000000" d="M61.077,85.907l-26.634-0.009c-0.783-0.001-1.418-0.636-1.418-1.419l0.008-22.148    c-2.905-3.862-4.436-8.438-4.434-13.27c0.004-12.205,9.937-22.13,22.141-22.125c12.205,0.004,22.13,9.937,22.126,22.142    l-0.001,1.214c4.436,11.459,4.435,11.786,4.435,12.104c-0.001,1.598-1.301,2.898-2.899,2.897l-3.02-0.001l-0.001,3.02    c-0.002,5.196-3.873,8.087-8.881,8.778l-0.002,7.401C62.496,85.273,61.86,85.908,61.077,85.907z M35.862,83.062L59.66,83.07    l0.001-7.304c0.001-0.783,0.636-1.418,1.42-1.418c4.112,0.001,7.459-1.926,7.461-6.038l0.002-4.438    c0-0.784,0.635-1.419,1.419-1.419l4.438,0.002c0.009,0,0.016-0.002,0.022-0.005c-0.463-1.397-2.817-7.555-4.3-11.382    c-0.062-0.164-0.096-0.338-0.096-0.514l0.001-1.479c0.003-10.64-8.649-19.299-19.29-19.303    c-10.64-0.004-19.299,8.649-19.302,19.29c-0.002,4.354,1.427,8.472,4.131,11.91c0.196,0.25,0.303,0.559,0.303,0.878L35.862,83.062    z"/></g><g><path fill="#000000" d="M50.719,39.713c-4.263-0.002-7.729,3.464-7.731,7.726c-0.001,4.261,3.464,7.729,7.726,7.73    c4.262,0.002,7.73-3.463,7.732-7.724C58.446,43.183,54.98,39.714,50.719,39.713 M50.712,58.716    c-6.218-0.002-11.273-5.062-11.271-11.278c0.002-6.218,5.061-11.274,11.279-11.271c6.218,0.002,11.273,5.062,11.271,11.279    C61.988,53.662,56.93,58.719,50.712,58.716"/></g><g><path fill="#000000" d="M50.717,45.459c-1.093,0-1.982,0.889-1.982,1.981c-0.001,1.093,0.888,1.983,1.98,1.983    c1.094,0,1.982-0.889,1.982-1.982C52.697,46.349,51.81,45.459,50.717,45.459 M50.714,52.97c-3.049-0.001-5.527-2.482-5.526-5.531    c0.001-3.048,2.481-5.527,5.53-5.526c3.048,0.001,5.527,2.482,5.526,5.53C56.242,50.491,53.762,52.971,50.714,52.97"/></g></g></svg>