<svg xmlns="http://www.w3.org/2000/svg" xmlns:xlink="http://www.w3.org/1999/xlink" xml:space="preserve" version="1.1" style="shape-rendering:geometricPrecision;text-rendering:geometricPrecision;image-rendering:optimizeQuality;" viewBox="0 0 455.84 480.5" x="0px" y="0px" fill-rule="evenodd" clip-rule="evenodd"><defs><style type="text/css">
   
   
  </style></defs><g><path class="fil0" d="M204.93 140.53c12.12,-34.1 44.69,-57.4 81.38,-57.4 52.37,0 92.21,45.95 85.64,97.57l-0.33 2.3c30.15,13.72 51.14,44.11 51.14,79.38 0,48.13 -39.03,87.16 -87.16,87.16 -11.2,0 -22.43,-2.22 -32.81,-6.41 -23.19,26.24 -56.36,41.27 -91.41,41.27 -35.05,0 -68.22,-15.03 -91.41,-41.27 -10.38,4.19 -21.61,6.41 -32.81,6.41 -48.13,0 -87.16,-39.03 -87.16,-87.16 0,-48.09 39.07,-87.16 87.16,-87.16 11.2,0 22.43,2.22 32.81,6.41 21.76,-24.63 52.32,-39.38 84.96,-41.1zm147.42 36.3c4.3,-39.12 -26.3,-73.7 -66.04,-73.7 -26.06,0 -49.36,15.17 -60.14,38.13 29.48,3.59 56.72,17.86 76.62,40.37 10.38,-4.19 21.61,-6.41 32.81,-6.41 5.73,0 11.33,0.55 16.75,1.61zm-265.19 18.39c-37.09,0 -67.16,30.06 -67.16,67.16 0,37.09 30.07,67.16 67.16,67.16 10.96,0 21.24,-2.5 30.97,-7.55l7.38 -3.84 5.12 6.62c19.44,25.11 48.99,39.63 80.75,39.63 31.76,0 61.31,-14.52 80.75,-39.63l5.12 -6.62 7.38 3.84c9.73,5.05 20.01,7.55 30.97,7.55 37.09,0 67.16,-30.07 67.16,-67.16 0,-37.12 -30.04,-67.16 -67.16,-67.16 -10.96,0 -21.24,2.5 -30.97,7.55l-7.38 3.83 -5.12 -6.61c-19.44,-25.11 -48.99,-39.63 -80.75,-39.63 -31.76,0 -61.31,14.52 -80.75,39.63l-5.12 6.61 -7.38 -3.83c-9.73,-5.05 -20.01,-7.55 -30.97,-7.55z"/><path class="fil0" d="M277.84 8.47c0,-4.67 3.8,-8.47 8.47,-8.47 4.67,0 8.47,3.8 8.47,8.47l0 42.33c0,4.67 -3.8,8.47 -8.47,8.47 -4.67,0 -8.47,-3.8 -8.47,-8.47l0 -42.33z"/><path class="fil0" d="M359.53 25.82c2.33,-4.03 7.51,-5.41 11.54,-3.08 4.03,2.33 5.41,7.51 3.08,11.54l-21.17 36.66c-2.33,4.03 -7.51,5.41 -11.54,3.08 -4.03,-2.33 -5.41,-7.51 -3.08,-11.54l21.17 -36.66z"/><path class="fil0" d="M421.56 81.69c4.03,-2.33 9.21,-0.95 11.54,3.08 2.33,4.03 0.95,9.21 -3.08,11.54l-36.66 21.17c-4.03,2.33 -9.21,0.95 -11.54,-3.08 -2.33,-4.03 -0.95,-9.21 3.08,-11.54l36.66 -21.17z"/><path class="fil0" d="M447.37 161.06c4.67,0 8.47,3.8 8.47,8.47 0,4.67 -3.8,8.47 -8.47,8.47l-42.34 0c-4.67,0 -8.47,-3.8 -8.47,-8.47 0,-4.67 3.8,-8.47 8.47,-8.47l42.34 0z"/><path class="fil0" d="M198.47 34.28c-2.33,-4.03 -0.95,-9.21 3.08,-11.54 4.03,-2.33 9.21,-0.95 11.54,3.08l21.17 36.66c2.33,4.03 0.95,9.21 -3.08,11.54 -4.03,2.33 -9.21,0.95 -11.54,-3.08l-21.17 -36.66z"/><path class="fil0" d="M142.6 96.31c-4.03,-2.33 -5.41,-7.51 -3.08,-11.54 2.33,-4.03 7.51,-5.41 11.54,-3.08l36.66 21.17c4.03,2.33 5.41,7.51 3.08,11.54 -2.33,4.03 -7.51,5.41 -11.54,3.08l-36.66 -21.17z"/></g></svg>