<svg xmlns="http://www.w3.org/2000/svg" xmlns:xlink="http://www.w3.org/1999/xlink" xml:space="preserve" version="1.1" style="shape-rendering:geometricPrecision;text-rendering:geometricPrecision;image-rendering:optimizeQuality;" viewBox="0 0 484.2 427.1375" x="0px" y="0px" fill-rule="evenodd" clip-rule="evenodd"><defs><style type="text/css">
   
    .fil0 {fill:black}
   
  </style></defs><g><path class="fil0" d="M415.31 103.61c40.23,14.99 68.89,53.74 68.89,99.2 0,58.45 -47.38,105.83 -105.83,105.83 -13.57,0 -26.54,-2.55 -38.46,-7.21 -25.11,24.9 -59.66,40.28 -97.81,40.28 -38.15,0 -72.7,-15.38 -97.81,-40.28 -11.92,4.66 -24.89,7.21 -38.46,7.21 -58.45,0 -105.83,-47.38 -105.83,-105.83 0,-58.45 47.38,-105.83 105.83,-105.83 13.57,0 26.54,2.55 38.46,7.21 18.04,-17.89 40.95,-30.86 66.56,-36.75 15.37,-39.47 53.74,-67.44 98.65,-67.44 57.71,0 104.62,46.19 105.81,103.61zm-22.01 0.46c-0.94,-45.59 -38.2,-82.06 -83.8,-82.06 -34.61,0 -65.62,21.25 -78.14,53.42 -2.73,7 -8.26,11.78 -15.58,13.46 -21.19,4.87 -40.56,15.62 -55.99,30.93 -6.32,6.27 -15.22,8.11 -23.51,4.87 -9.72,-3.8 -20.02,-5.7 -30.45,-5.7 -46.3,0 -83.82,37.52 -83.82,83.82 0,46.3 37.52,83.82 83.82,83.82 10.43,0 20.73,-1.9 30.45,-5.7 8.29,-3.24 17.18,-1.4 23.51,4.87 21.98,21.8 51.35,33.9 82.31,33.9 30.96,0 60.33,-12.1 82.31,-33.9 6.33,-6.27 15.22,-8.11 23.51,-4.87 9.72,3.8 20.02,5.7 30.45,5.7 46.3,0 83.82,-37.52 83.82,-83.82 0,-35.05 -21.81,-66.37 -54.56,-78.58 -8.64,-3.21 -14.13,-10.96 -14.33,-20.16z"/></g></svg>