<svg xmlns="http://www.w3.org/2000/svg" xmlns:xlink="http://www.w3.org/1999/xlink" version="1.1" x="0px" y="0px" viewBox="0 0 100 125" enable-background="new 0 0 100 100" xml:space="preserve"><path d="M95.942,35.271c-0.68-0.678-1.685-0.909-2.59-0.594c-7.158,2.49-14.925,0.722-20.263-4.615  c-5.339-5.339-7.107-13.103-4.615-20.262c0.315-0.906,0.084-1.912-0.594-2.59c-0.678-0.679-1.686-0.906-2.59-0.594  c-3.542,1.233-6.665,3.187-9.282,5.804c-5.519,5.519-8.039,13.303-6.933,20.912c-0.531-0.027-1.064-0.043-1.602-0.043  c-12.568,0-23.79,7.643-28.447,19.19c-9.81,0.88-17.522,9.146-17.522,19.181c0,10.619,8.64,19.258,19.26,19.258  c3.037,0,6.018-0.722,8.718-2.099c5.21,3.771,11.534,5.831,17.992,5.831c5.63,0,11.07-1.52,15.849-4.411  c2.727,1.967,5.992,3.032,9.38,3.032c8.87,0,16.086-7.216,16.086-16.085c0-6.809-4.395-12.893-10.692-15.145  c-0.172-2.753-0.716-5.405-1.569-7.916c5.362-0.684,10.32-3.098,14.205-6.983c2.616-2.616,4.568-5.739,5.803-9.282  C96.85,36.955,96.62,35.948,95.942,35.271z M83.789,77.187c0,6.112-4.973,11.085-11.086,11.085c-2.785,0-5.454-1.049-7.514-2.954  l-1.472-1.36l-1.648,1.141c-4.305,2.979-9.352,4.553-14.595,4.553c-5.889,0-11.645-2.046-16.206-5.762l-1.395-1.135l-1.52,0.959  c-2.284,1.442-4.908,2.205-7.59,2.205c-7.863,0-14.26-6.396-14.26-14.258c0-7.824,6.334-14.196,14.145-14.259l1.935,0.002  l0.576-1.696c3.539-10.418,13.311-17.418,24.314-17.418c14.144,0,25.664,11.506,25.682,25.648l0.003,2.004l1.956,0.434  C80.141,67.49,83.789,72.037,83.789,77.187z M87.197,43.607c-3.45,3.449-7.962,5.426-12.798,5.676  c-4.162-7.596-11.442-13.245-20.104-15.221c-1.455-6.51,0.504-13.36,5.249-18.107c0.916-0.915,1.909-1.729,2.977-2.437  c-0.849,7.342,1.646,14.691,7.034,20.078c5.387,5.387,12.737,7.883,20.079,7.033C88.926,41.697,88.112,42.691,87.197,43.607z"/><text x="0" y="115" fill="#000000" font-size="5px" font-weight="bold" font-family="'Helvetica Neue', Helvetica, Arial-Unicode, Arial, Sans-serif">Created by Elizabeth Lopez</text><text x="0" y="120" fill="#000000" font-size="5px" font-weight="bold" font-family="'Helvetica Neue', Helvetica, Arial-Unicode, Arial, Sans-serif">from the Noun Project</text></svg>