<svg xmlns="http://www.w3.org/2000/svg" xmlns:xlink="http://www.w3.org/1999/xlink" xml:space="preserve" version="1.1" style="shape-rendering:geometricPrecision;text-rendering:geometricPrecision;image-rendering:optimizeQuality;" viewBox="0 0 472.04 377.1375" x="0px" y="0px" fill-rule="evenodd" clip-rule="evenodd"><defs><style type="text/css">
   
    .fil0 {fill:black}
   
  </style></defs><g><path class="fil0" d="M101.95 134.16c10.04,-54.5 68.97,-84.31 118.53,-61.56 16.54,-42.48 57.82,-72.6 106.16,-72.6 77.07,0 131.21,74.87 108.88,147.4 22.07,15.28 36.53,40.78 36.53,69.66 0,46.76 -37.9,84.66 -84.67,84.66 -98.61,0 -196.15,0 -302.71,0 -46.76,0 -84.66,-37.9 -84.66,-84.66 0,-54.03 49.63,-93.68 101.95,-82.9zm-4.27 20.72c-39.45,-8.12 -76.52,21.79 -76.52,62.18 0,35.08 28.42,63.5 63.5,63.5 100.91,0 201.81,0 302.71,0 35.08,0 63.51,-28.41 63.51,-63.5 0,-20.95 -10.23,-40.37 -27.41,-52.26 -9.62,-6.64 -11.76,-12 -8.18,-23.63 18.26,-59.31 -26.61,-120.01 -88.66,-120.01 -38.3,0 -72.59,23.53 -86.44,59.12 -5.95,15.26 -13.66,18.38 -28.55,11.55 -37.31,-17.13 -81.45,5.77 -88.89,46.16 -2.87,15.61 -9.55,20.09 -25.08,16.89z"/></g></svg>